<svg xmlns="http://www.w3.org/2000/svg" viewBox="0 0 800 500" role="img" aria-labelledby="title desc">
  <title id="title">Maple Noodle Bar bowl illustration</title>
  <desc id="desc">A simple illustration of a noodle bowl with vegetables and broth.</desc>
  <rect width="800" height="500" fill="#efe0cf"/>
  <rect x="0" y="350" width="800" height="150" fill="#cda986"/>
  <ellipse cx="400" cy="250" rx="200" ry="80" fill="#fff6ec" stroke="#815a40" stroke-width="10"/>
  <path d="M220 250c0 90 70 150 180 150s180-60 180-150" fill="#9e5e3a"/>
  <ellipse cx="400" cy="245" rx="150" ry="48" fill="#efc287"/>
  <path d="M300 220c40 35 80 35 120 0 40 35 80 35 120 0" fill="none" stroke="#f8e7b6" stroke-width="10" stroke-linecap="round"/>
  <circle cx="315" cy="230" r="18" fill="#6f954f"/>
  <circle cx="485" cy="230" r="18" fill="#6f954f"/>
  <circle cx="400" cy="210" r="16" fill="#cf6844"/>
  <rect x="560" y="110" width="14" height="180" rx="7" fill="#6b4a34"/>
  <rect x="585" y="110" width="14" height="180" rx="7" fill="#6b4a34"/>
  <text x="400" y="440" text-anchor="middle" font-family="Georgia, serif" font-size="42" fill="#4f3829">Maple Noodle Bar</text>
</svg>
